<svg version="1.1" id="Layer_1" xmlns="http://www.w3.org/2000/svg" xmlns:xlink="http://www.w3.org/1999/xlink" x="0px" y="0px"
	 width="100%" viewBox="0 0 360 360" enable-background="new 0 0 360 360" xml:space="preserve">
<path fill="#010101" opacity="1.000000" stroke="none" 
	d="
M225.000000,1.000001 
	C232.354248,1.000000 239.708496,1.000000 247.728699,1.389501 
	C258.611176,1.852124 268.827667,1.943746 279.044281,1.954970 
	C279.695831,1.955686 280.348083,1.332791 281.000000,1.000001 
	C288.354248,1.000000 295.708496,1.000000 303.728699,1.389501 
	C314.611176,1.852124 324.827667,1.943746 335.044281,1.954968 
	C335.695831,1.955684 336.348083,1.332789 337.000000,1.000000 
	C344.995300,1.000000 352.990570,1.000000 360.989380,1.000000 
	C360.992920,120.924599 360.992920,240.849197 360.992920,361.000000 
	C241.645874,361.000000 122.291588,361.000000 2.465816,360.533020 
	C1.996211,240.377365 1.998105,120.688683 2.000000,1.000000 
	C9.020947,1.000000 16.041895,1.000000 23.728748,1.389501 
	C34.611179,1.852122 44.827690,1.943745 55.044285,1.954967 
	C55.695839,1.955683 56.348080,1.332789 57.000000,1.000000 
	C64.354256,1.000000 71.708504,1.000000 79.728706,1.389501 
	C90.611183,1.852123 100.827690,1.943745 111.044289,1.954964 
	C111.695839,1.955680 112.348076,1.332786 113.000000,0.999999 
	C120.354248,1.000000 127.708496,1.000000 135.728699,1.389501 
	C146.611191,1.852123 156.827698,1.943745 167.044296,1.954968 
	C167.695847,1.955684 168.348083,1.332790 169.000000,1.000001 
	C176.354248,1.000000 183.708496,1.000000 191.728699,1.389501 
	C202.611191,1.852123 212.827698,1.943745 223.044296,1.954968 
	C223.695847,1.955684 224.348083,1.332790 225.000000,1.000001 
M115.024940,282.428680 
	C132.660034,299.986023 153.768585,311.438934 177.582230,318.235535 
	C181.851669,319.454071 185.810211,319.697144 190.202042,318.458771 
	C236.192520,305.491180 267.845978,276.566101 285.232880,232.332260 
	C301.895508,189.941147 303.947449,145.885071 298.222931,101.180122 
	C297.376099,94.566635 296.188110,93.942574 289.727539,95.542542 
	C277.505707,98.569290 265.328491,98.289032 253.195847,95.054390 
	C226.724945,87.997078 205.884750,72.125443 187.254120,52.830158 
	C183.559570,49.003811 181.902023,48.888817 178.337341,52.697987 
	C167.356155,64.432434 155.117294,74.618164 141.223129,82.743553 
	C120.295906,94.981911 98.334206,101.624237 73.946037,95.065208 
	C69.332375,93.824394 67.663017,96.242477 67.183647,100.497421 
	C63.157803,136.230804 64.530113,171.635925 73.619270,206.556305 
	C81.033073,235.039963 93.578537,260.775055 115.024940,282.428680 
z"/>
<path fill="#575757" opacity="1.000000" stroke="none" 
	d="
M1.500000,1.000000 
	C1.998105,120.688683 1.996211,240.377365 1.997160,360.533020 
	C1.666670,359.500000 1.042748,358.000183 1.041733,356.499969 
	C0.993842,285.666687 1.000000,214.833359 1.000000,144.000046 
	C1.000000,96.333366 1.000000,48.666683 1.500000,1.000000 
z"/>
<path fill="#B1B1B1" opacity="1.000000" stroke="none" 
	d="
M56.531342,1.000000 
	C56.348080,1.332789 55.695839,1.955683 55.044285,1.954967 
	C44.827690,1.943745 34.611179,1.852122 24.197327,1.389501 
	C34.687561,1.000000 45.375122,1.000000 56.531342,1.000000 
z"/>
<path fill="#B1B1B1" opacity="1.000000" stroke="none" 
	d="
M112.531342,0.999999 
	C112.348076,1.332786 111.695839,1.955680 111.044289,1.954964 
	C100.827690,1.943745 90.611183,1.852123 80.197327,1.389501 
	C90.687561,1.000000 101.375122,1.000000 112.531342,0.999999 
z"/>
<path fill="#B1B1B1" opacity="1.000000" stroke="none" 
	d="
M168.531342,1.000001 
	C168.348083,1.332790 167.695847,1.955684 167.044296,1.954968 
	C156.827698,1.943745 146.611191,1.852123 136.197327,1.389501 
	C146.687561,1.000000 157.375122,1.000000 168.531342,1.000001 
z"/>
<path fill="#B1B1B1" opacity="1.000000" stroke="none" 
	d="
M224.531342,1.000001 
	C224.348083,1.332790 223.695847,1.955684 223.044296,1.954968 
	C212.827698,1.943745 202.611191,1.852123 192.197327,1.389501 
	C202.687561,1.000000 213.375122,1.000000 224.531342,1.000001 
z"/>
<path fill="#B1B1B1" opacity="1.000000" stroke="none" 
	d="
M280.531342,1.000001 
	C280.348083,1.332791 279.695831,1.955686 279.044281,1.954970 
	C268.827667,1.943746 258.611176,1.852124 248.197327,1.389501 
	C258.687561,1.000000 269.375122,1.000000 280.531342,1.000001 
z"/>
<path fill="#B1B1B1" opacity="1.000000" stroke="none" 
	d="
M336.531342,1.000000 
	C336.348083,1.332789 335.695831,1.955684 335.044281,1.954968 
	C324.827667,1.943746 314.611176,1.852124 304.197327,1.389501 
	C314.687561,1.000000 325.375122,1.000000 336.531342,1.000000 
z"/>
<path fill="#F2F2F2" opacity="1.000000" stroke="none" 
	d="
M114.790512,282.168945 
	C93.578537,260.775055 81.033073,235.039963 73.619270,206.556305 
	C64.530113,171.635925 63.157803,136.230804 67.183647,100.497421 
	C67.663017,96.242477 69.332375,93.824394 73.946037,95.065208 
	C98.334206,101.624237 120.295906,94.981911 141.223129,82.743553 
	C155.117294,74.618164 167.356155,64.432434 178.337341,52.697987 
	C181.902023,48.888817 183.559570,49.003811 187.254120,52.830158 
	C205.884750,72.125443 226.724945,87.997078 253.195847,95.054390 
	C265.328491,98.289032 277.505707,98.569290 289.727539,95.542542 
	C296.188110,93.942574 297.376099,94.566635 298.222931,101.180122 
	C303.947449,145.885071 301.895508,189.941147 285.232880,232.332260 
	C267.845978,276.566101 236.192520,305.491180 190.202042,318.458771 
	C185.810211,319.697144 181.851669,319.454071 177.582230,318.235535 
	C153.768585,311.438934 132.660034,299.986023 114.790512,282.168945 
M94.264641,238.094421 
	C111.671982,273.844055 139.495148,297.476471 177.388855,309.236969 
	C180.575317,310.225891 184.440018,310.888763 187.532639,310.039368 
	C228.034698,298.915161 257.039062,274.130951 274.349487,235.828857 
	C288.560242,204.385300 292.912384,171.090668 292.292969,136.961868 
	C292.097595,126.196060 291.176270,115.443428 290.582855,104.605217 
	C245.220276,111.783424 212.830475,89.246841 182.693192,61.050247 
	C152.555588,89.430344 119.983543,111.825684 75.319725,104.735016 
	C73.262207,125.660721 73.041626,146.079269 75.136223,166.490036 
	C77.662750,191.109726 83.095222,214.984955 94.264641,238.094421 
z"/>
<path fill="#010101" opacity="1.000000" stroke="none" 
	d="
M94.117424,237.747482 
	C83.095222,214.984955 77.662750,191.109726 75.136223,166.490036 
	C73.041626,146.079269 73.262207,125.660721 75.319725,104.735016 
	C119.983543,111.825684 152.555588,89.430344 182.693192,61.050247 
	C212.830475,89.246841 245.220276,111.783424 290.582855,104.605217 
	C291.176270,115.443428 292.097595,126.196060 292.292969,136.961868 
	C292.912384,171.090668 288.560242,204.385300 274.349487,235.828857 
	C257.039062,274.130951 228.034698,298.915161 187.532639,310.039368 
	C184.440018,310.888763 180.575317,310.225891 177.388855,309.236969 
	C139.495148,297.476471 111.671982,273.844055 94.117424,237.747482 
z"/>
</svg>